<svg width="167" height="212" viewBox="0 0 167 212" fill="none" xmlns="http://www.w3.org/2000/svg">
<path d="M85.5834 46.8687C51.4211 46.8687 23.7246 74.5696 23.7246 108.737C23.7246 142.905 51.4211 170.606 85.5834 170.606C119.746 170.606 147.442 142.905 147.442 108.737C147.442 74.5696 119.746 46.8687 85.5834 46.8687ZM85.5834 149.365C63.147 149.365 44.9623 131.177 44.9623 108.737C44.9623 86.2973 63.147 68.1098 85.5834 68.1098C108.02 68.1098 126.204 86.2973 126.204 108.737C126.204 131.177 108.02 149.365 85.5834 149.365Z" fill="url(#paint0_linear_5726_76652)"/>
<path d="M144.764 0C144.764 0 144.574 1.81241 143.848 4.42171C143.848 4.42171 143.841 4.42171 143.841 4.42876C143.411 5.98024 142.79 7.82791 141.909 9.73905C139.384 15.2045 134.724 21.2341 126.248 22.8702C125.931 22.9337 125.607 22.9901 125.268 23.0394C107.951 25.5994 106.816 24.6403 106.816 24.6403L99.9268 15.9802L95.0757 9.88009L94.4199 9.06204C94.4199 9.06204 100.9 7.49646 118.224 7.92664C125.571 8.11 131.459 6.71367 135.802 5.0423C141.704 2.7715 144.764 0 144.764 0Z" fill="url(#paint1_linear_5726_76652)"/>
<path d="M141.908 9.73926C139.383 15.2047 134.723 21.2343 126.247 22.8704C125.93 22.9339 125.606 22.9903 125.267 23.0397C107.95 25.5996 106.815 24.6405 106.815 24.6405L99.9258 15.9804C120.628 19.6476 136.958 12.3345 141.908 9.73926Z" fill="url(#paint2_linear_5726_76652)"/>
<path d="M144.763 0C144.763 0 142.669 19.7038 126.247 22.8702C133.806 18.0042 135.449 8.32861 135.801 5.0423C141.703 2.7715 144.763 0 144.763 0Z" fill="url(#paint3_linear_5726_76652)"/>
<path opacity="0.4" d="M144.764 0C144.764 0 144.573 1.81241 143.847 4.42171C143.847 4.42171 143.84 4.42171 143.84 4.42876C141.273 6.36106 135.47 9.49222 124.612 9.73905C112.844 10.007 99.4606 8.7588 95.0679 9.87304L94.4121 9.05499C94.4121 9.05499 100.892 7.48941 118.216 7.91959C125.564 8.10294 131.451 6.70661 135.795 5.03525C141.703 2.7715 144.764 0 144.764 0Z" fill="#FFCA83"/>
<path d="M146.617 30.0706C146.617 30.0706 145.996 31.2202 144.748 32.8069C143.564 34.3161 141.808 36.2201 139.474 37.9268C134.856 41.3048 127.967 43.8858 118.73 41.0156C118.519 40.9521 118.307 40.8816 118.095 40.8111C108.844 37.7152 104.459 34.1821 102.4 31.3471C100.179 28.2794 100.665 26.0227 100.665 26.0227L101.695 23.364L102.238 21.9607L103.711 18.1666C103.711 18.1666 104.346 18.0044 105.566 18.0326C108.238 18.082 113.717 19.0199 121.55 24.3866C127.227 28.2794 133.446 29.7039 138.276 30.1553C143.162 30.6207 146.617 30.0706 146.617 30.0706Z" fill="url(#paint4_linear_5726_76652)"/>
<path d="M139.468 37.9269C134.85 41.3049 127.961 43.886 118.724 41.0158C118.513 40.9523 118.301 40.8818 118.09 40.8113C108.839 37.7154 104.453 34.1822 102.394 31.3472L101.696 23.3712L101.513 21.312C101.513 21.312 101.759 21.5518 102.239 21.9679C105.736 25.0356 121.446 37.8846 139.468 37.9269Z" fill="url(#paint5_linear_5726_76652)"/>
<path d="M146.618 30.0703C146.618 30.0703 137.551 46.8615 118.731 41.0153C130.168 40.9095 136.211 33.3778 138.277 30.1549C143.163 30.6204 146.618 30.0703 146.618 30.0703Z" fill="url(#paint6_linear_5726_76652)"/>
<path opacity="0.4" d="M146.617 30.0705C146.617 30.0705 145.997 31.22 144.749 32.8067C139.58 34.196 130.499 35.0775 122.404 27.9266C113.195 19.7955 107.216 19.4217 107.216 19.4217L105.51 18.2722L105.573 18.0254C108.246 18.0748 113.724 19.0127 121.558 24.3794C127.234 28.2722 133.453 29.6967 138.283 30.1481C143.162 30.6206 146.617 30.0705 146.617 30.0705Z" fill="#FFCA83"/>
<path d="M108.754 42.8067C106.209 48.3568 99.7431 47.9619 99.7431 47.9619C99.7431 47.9619 80.2258 54.1043 74.1549 49.464C68.084 44.8307 70.9608 40.2609 70.9608 40.2609C70.9608 40.2609 64.6078 40.3949 64.0437 34.9083C63.8181 32.7362 64.1354 31.0508 64.7206 29.7532C66.434 25.945 70.5095 25.3738 70.5095 25.3738C70.6435 22.7645 72.0114 20.4725 72.0114 20.4725C72.0114 20.4725 65.609 22.3061 66.8571 17.4119C68.5775 10.6065 76.4817 13.2863 76.4817 13.2863C76.4817 13.2863 73.069 9.58395 72.9915 6.19891C72.9562 4.61922 73.6472 3.11006 75.7414 2.07339C83.977 -1.99571 89.8928 8.27225 89.8928 8.27225C89.8928 8.27225 96.556 6.17775 102.359 11.7349C115.284 24.1044 106.406 33.0324 106.406 33.0324C106.406 33.0324 107.732 34.1678 108.642 36.0437C109.481 37.7785 109.981 40.134 108.754 42.8067Z" fill="url(#paint7_linear_5726_76652)"/>
<path d="M108.754 42.806C106.209 48.3561 99.7431 47.9611 99.7431 47.9611C99.7431 47.9611 80.2258 54.1036 74.1549 49.4633C68.084 44.83 70.9608 40.2602 70.9608 40.2602C70.9608 40.2602 64.6078 40.3942 64.0437 34.9076C63.8181 32.7355 64.1354 31.05 64.7206 29.7524C64.9674 32.6086 66.3141 37.8906 72.8787 38.3914C72.8787 38.3914 72.4627 43.61 78.8932 43.61C85.3237 43.61 86.734 34.9076 86.734 34.9076L94.4196 43.9555C94.4196 43.9555 99.1085 46.4802 104.749 41.9527C107.083 40.0768 108.169 37.9189 108.642 36.043C109.481 37.7778 109.981 40.1332 108.754 42.806Z" fill="url(#paint8_linear_5726_76652)"/>
<path d="M116.043 95.2252C113.604 99.8937 110.558 99.4918 110.558 99.4918C110.558 99.4918 113.343 102.002 111.693 106.403C110.036 110.811 102.555 110.705 102.555 110.705L101.8 107.023L99.1562 94.0898C99.1562 94.0898 105.622 92.5736 111.326 87.5383C112.187 86.7838 113.033 85.9375 113.837 85.0137C114.605 84.1251 116.029 84.3366 116.481 85.4156C117.39 87.6089 118.145 91.2055 116.043 95.2252Z" fill="url(#paint9_linear_5726_76652)"/>
<path d="M107.21 98.0103C107.21 98.0103 109.078 100.274 107.732 104.005C106.758 106.706 103.515 107.044 101.795 107.03L99.1504 94.0964C99.1504 94.0964 105.616 92.5802 111.32 87.5449C112.999 94.7311 107.21 98.0103 107.21 98.0103Z" fill="url(#paint10_linear_5726_76652)"/>
<path d="M36.8467 123.604C36.8467 123.604 39.653 131.368 57.2806 127.08C74.9082 122.793 90.5474 119.767 98.1202 122.644C105.693 125.515 109.141 123.709 107.216 119.337C105.291 114.965 89.3064 107.63 89.3064 107.63L47.4655 114.245L39.0466 119.337L36.8467 123.604Z" fill="url(#paint11_linear_5726_76652)"/>
<path d="M75.3537 207.645C66.7443 210.007 51.5 213.702 50.0686 210.691C49.0603 208.554 55.6883 203.858 60.2926 200.924C62.6406 199.422 64.4598 198.385 64.4598 198.385L55.7377 163.371L53.2769 153.484C52.4519 150.183 52.1557 146.791 52.3814 143.399L54.4685 112.052L63.106 106.411L79.9086 115.233L72.4486 146.023L74.4582 159.789L79.9791 197.694L80.3246 200.049C80.8253 203.477 78.6888 206.735 75.3537 207.645Z" fill="url(#paint12_linear_5726_76652)"/>
<path d="M74.4583 159.788C72.484 161.657 66.3778 166.142 55.7448 163.37L54.6096 158.829L53.284 153.49C52.459 150.19 52.1629 146.798 52.3885 143.406L54.4756 112.059L63.1132 106.417L79.9158 115.239L72.4558 146.029L73.6615 154.322L74.4583 159.788Z" fill="url(#paint13_linear_5726_76652)"/>
<path d="M70.0646 161.425L67.2583 144.471C67.0045 142.92 67.0679 141.361 67.4557 139.831L74.4151 112.447L75.1907 112.645L68.2313 140.028C67.8717 141.446 67.8083 142.891 68.048 144.337L70.8543 161.291L70.0646 161.425Z" fill="url(#paint14_linear_5726_76652)"/>
<path d="M74.458 159.789C72.4838 161.658 66.3776 166.143 55.7446 163.371L54.6094 158.83C65.8205 160.071 71.5319 156.256 73.6613 154.323L74.458 159.789Z" fill="url(#paint15_linear_5726_76652)"/>
<path d="M75.3537 207.645C66.7443 210.007 51.5 213.703 50.0686 210.691C49.0603 208.554 55.6883 203.858 60.2926 200.924C59.5029 202.066 58.7414 203.78 60.0177 205.092C61.9496 207.066 73.4076 206.284 79.9791 197.701L80.3246 200.057C80.8253 203.477 78.6888 206.735 75.3537 207.645Z" fill="url(#paint16_linear_5726_76652)"/>
<path d="M131.034 198.595C124.089 204.209 111.595 213.687 109.078 211.501C107.301 209.949 111.496 202.989 114.542 198.454C116.093 196.141 117.348 194.456 117.348 194.456L95.3562 165.859L89.1442 157.784C87.0712 155.09 85.4354 152.1 84.2861 148.899L73.6602 119.336L79.3151 110.704L98.2471 112.065L103.726 143.271L111.073 155.083L131.295 187.615L132.55 189.632C134.384 192.58 133.728 196.423 131.034 198.595Z" fill="url(#paint17_linear_5726_76652)"/>
<path d="M111.073 155.09C110.008 157.594 106.215 164.145 95.3562 165.859L92.5005 162.15L89.1442 157.784C87.0712 155.09 85.4354 152.1 84.2861 148.899L73.6602 119.336L79.3151 110.704L98.2471 112.065L103.726 143.271L108.147 150.387L111.073 155.09Z" fill="url(#paint18_linear_5726_76652)"/>
<path d="M107.702 158.342L98.3456 143.935C97.4925 142.616 96.9284 141.156 96.6745 139.604L92.1055 111.72L92.8952 111.593L97.4643 139.478C97.704 140.923 98.2258 142.27 99.0225 143.497L108.379 157.905L107.702 158.342Z" fill="url(#paint19_linear_5726_76652)"/>
<path d="M111.073 155.09C110.009 157.593 106.215 164.145 95.3566 165.858L92.501 162.149C103.275 158.799 106.984 153.016 108.154 150.393L111.073 155.09Z" fill="url(#paint20_linear_5726_76652)"/>
<path d="M131.034 198.595C124.089 204.208 111.594 213.686 109.077 211.5C107.3 209.949 111.496 202.988 114.542 198.454C114.274 199.822 114.267 201.691 115.959 202.382C118.518 203.418 128.707 198.115 131.295 187.622L132.55 189.639C134.383 192.579 133.728 196.423 131.034 198.595Z" fill="url(#paint21_linear_5726_76652)"/>
<path d="M83.4047 115.726C83.2989 116.29 83.6162 116.791 84.1168 117.256C85.7456 118.765 89.4192 119.978 87.7551 122.299C85.5764 125.345 74.5203 121.339 74.5203 121.339C42.7554 113.159 36.8396 123.603 36.8396 123.603C36.5152 121.177 38.2639 118.406 40.5837 115.881C44.5111 111.622 50.0744 108.081 50.0744 108.081L61.0529 59.1463L61.2996 58.0532C61.2996 58.0532 68.1321 48.9136 73.4838 48.8643C74.5767 48.8572 75.5498 48.7373 76.41 48.554C77.9119 48.2366 79.0612 47.7218 79.8721 47.2564C80.8733 46.6781 81.3599 46.1633 81.3599 46.1633L96.16 44.4849C96.6818 45.1407 97.4715 45.8107 98.3035 46.4313C100.137 47.7853 102.21 48.8572 102.21 48.8572L100.722 85.5497C100.616 86.5934 100.539 87.63 100.503 88.6597C99.8477 105.204 107.216 119.322 107.216 119.322C101.11 113.053 84.279 113.314 83.4399 115.62L83.4047 115.726Z" fill="url(#paint22_linear_5726_76652)"/>
<path d="M76.4109 48.5679L66.9554 61.5439L61.0537 59.1532L61.3005 58.0601C61.3005 58.0601 68.133 48.9205 73.4847 48.8711C74.5776 48.8641 75.5577 48.7512 76.4109 48.5679Z" fill="url(#paint23_linear_5726_76652)"/>
<path d="M107.209 119.336C102.908 114.915 93.269 113.744 87.6635 114.245C85.3155 114.456 83.6726 114.957 83.4258 115.641L84.5187 111.332L88.5801 95.2321L100.496 88.6807C100.419 90.6976 100.454 92.6792 100.588 94.6045C101.096 102.08 102.978 108.688 104.614 113.187C106.003 117.03 107.209 119.336 107.209 119.336Z" fill="url(#paint24_linear_5726_76652)"/>
<path d="M107.21 119.337C102.908 114.915 93.2696 113.745 87.6641 114.245C99.4816 108.167 100.539 95.2328 100.589 94.5981C101.096 102.073 102.979 108.681 104.615 113.181C106.004 117.031 107.21 119.337 107.21 119.337Z" fill="url(#paint25_linear_5726_76652)"/>
<path d="M98.3042 46.4451C96.2312 48.3351 92.8749 50.5707 88.461 50.8316C82.6368 51.1701 80.5568 48.582 79.8799 47.2632C80.8811 46.6849 81.3677 46.1701 81.3677 46.1701L96.1678 44.4917C96.6825 45.1546 97.4722 45.8246 98.3042 46.4451Z" fill="url(#paint26_linear_5726_76652)"/>
<path d="M103.077 26.5514C103.077 26.5514 102.971 10.3596 87.7623 10.8815C72.5532 11.4034 73.5404 23.5542 73.5404 23.5542L103.077 26.5514Z" fill="url(#paint27_linear_5726_76652)"/>
<path d="M99.4753 33.4553C100.392 33.0534 102.253 32.4469 102.43 34.0266C102.916 38.547 94.4268 40.6485 94.4268 40.6485C94.4762 42.736 96.1684 44.499 96.1684 44.499C88.8142 51.8967 81.3683 46.1774 81.3683 46.1774C81.6362 45.9518 81.8548 45.6626 82.0381 45.3453C82.8984 43.8361 82.849 41.6288 82.849 41.6288C74.557 41.3044 71.6872 34.8376 71.3911 31.248C71.384 31.1845 71.384 31.1281 71.377 31.0646C71.2994 29.76 71.5391 28.7374 71.8705 27.9617C72.4205 26.6711 73.2314 26.0717 73.2314 26.0717C73.9717 12.1437 88.5251 14.1183 91.0071 14.7953C100.667 17.4469 100.667 26.0223 100.667 26.0223C100.667 26.0223 103.699 24.0618 104.122 27.1295C104.587 30.5005 100.864 32.736 99.4753 33.4553Z" fill="url(#paint28_linear_5726_76652)"/>
<path d="M91.944 40.8179C91.944 40.8179 89.6454 46.0153 82.0303 45.3454C82.8905 43.8362 82.8411 41.6289 82.8411 41.6289C82.8411 41.6289 88.9473 42.2495 91.944 40.8179Z" fill="url(#paint29_linear_5726_76652)"/>
<path d="M101.068 16.8616L98.7695 15.9025L100.349 10.9096C100.652 9.95051 101.717 9.45686 102.648 9.84473C103.578 10.2326 103.973 11.3327 103.508 12.2213L101.068 16.8616Z" fill="url(#paint30_linear_5726_76652)"/>
<path d="M101.682 17.2351L103.578 18.843L107.301 15.1618C108.013 14.4495 107.971 13.2859 107.203 12.6371C106.434 11.9883 105.278 12.1364 104.692 12.9545L101.682 17.2351Z" fill="url(#paint31_linear_5726_76652)"/>
<path d="M100.328 23.97C103.202 23.97 105.531 21.6399 105.531 18.7655C105.531 15.8912 103.202 13.561 100.328 13.561C97.4538 13.561 95.124 15.8912 95.124 18.7655C95.124 21.6399 97.4538 23.97 100.328 23.97Z" fill="url(#paint32_linear_5726_76652)"/>
<path d="M98.3331 18.5538C98.1357 18.8782 97.769 19.0263 97.5293 18.8711C97.2825 18.723 97.2473 18.3352 97.4447 18.0037C97.6421 17.6793 98.0088 17.5312 98.2485 17.6864C98.4953 17.8415 98.5305 18.2294 98.3331 18.5538Z" fill="url(#paint33_linear_5726_76652)"/>
<path d="M102.317 20.9942C102.12 21.3186 101.753 21.4667 101.513 21.3116C101.274 21.1564 101.231 20.7756 101.429 20.4441C101.626 20.1197 101.993 19.9716 102.233 20.1268C102.472 20.2819 102.522 20.6698 102.317 20.9942Z" fill="url(#paint34_linear_5726_76652)"/>
<path d="M85.5843 23.6313C86.4566 23.6313 87.1637 22.6904 87.1637 21.5298C87.1637 20.3691 86.4566 19.4282 85.5843 19.4282C84.712 19.4282 84.0049 20.3691 84.0049 21.5298C84.0049 22.6904 84.712 23.6313 85.5843 23.6313Z" fill="url(#paint35_linear_5726_76652)"/>
<path d="M85.1268 21.3398C85.3371 21.3398 85.5076 21.144 85.5076 20.9026C85.5076 20.6611 85.3371 20.4653 85.1268 20.4653C84.9166 20.4653 84.7461 20.6611 84.7461 20.9026C84.7461 21.144 84.9166 21.3398 85.1268 21.3398Z" fill="white"/>
<path d="M77.3138 26.1987C78.1861 26.1987 78.8932 25.2578 78.8932 24.0972C78.8932 22.9365 78.1861 21.9956 77.3138 21.9956C76.4415 21.9956 75.7344 22.9365 75.7344 24.0972C75.7344 25.2578 76.4415 26.1987 77.3138 26.1987Z" fill="url(#paint36_linear_5726_76652)"/>
<path d="M76.8632 23.9072C77.0735 23.9072 77.2439 23.7114 77.2439 23.4699C77.2439 23.2285 77.0735 23.0327 76.8632 23.0327C76.6529 23.0327 76.4824 23.2285 76.4824 23.4699C76.4824 23.7114 76.6529 23.9072 76.8632 23.9072Z" fill="white"/>
<path d="M74.945 20.8598C75.1495 20.4508 75.5796 19.8796 76.461 19.3859C76.461 19.3859 78.1109 18.5115 79.091 19.1179C79.4929 19.3648 79.6833 19.8796 79.507 20.3168C79.373 20.6412 79.0346 20.9656 78.2167 20.9515C77.2366 20.9374 76.5103 21.3887 76.0873 21.7484C75.8123 21.9811 75.4033 21.9741 75.1283 21.7272C74.8815 21.5157 74.804 21.156 74.945 20.8598Z" fill="#F87C38"/>
<path d="M84.4981 17.4255C84.8789 17.1716 85.5417 16.8966 86.55 16.9107C86.55 16.9107 88.4185 16.9883 88.9544 17.9967C89.18 18.4128 89.0884 18.9558 88.7076 19.2449C88.4256 19.4565 87.9743 19.5693 87.2692 19.1462C86.4301 18.6455 85.5769 18.6667 85.027 18.7654C84.6674 18.8289 84.3218 18.6173 84.209 18.2717C84.1103 17.9544 84.2231 17.6018 84.4981 17.4255Z" fill="#F87C38"/>
<path d="M81.2828 26.6143H80.2251H79.1675C78.5752 26.6143 78.0957 27.0656 78.0957 27.6298V27.7567C78.0957 28.1516 78.3354 28.5042 78.7091 28.6735L79.7739 29.153C80.0629 29.28 80.3943 29.28 80.6834 29.153L81.7481 28.6735C82.1218 28.5042 82.3616 28.1516 82.3616 27.7567V27.6298C82.3545 27.0726 81.8751 26.6143 81.2828 26.6143Z" fill="#F87C38"/>
<path d="M80.4383 34.5351C79.7473 34.5351 79.296 34.4505 79.2819 34.4434C79.1762 34.4223 79.1056 34.3165 79.1268 34.2107C79.148 34.1049 79.2537 34.0274 79.3595 34.0556C79.4018 34.0626 83.4068 34.8172 85.8605 31.6085C85.9311 31.5238 86.0509 31.5027 86.1426 31.5732C86.2272 31.6437 86.2483 31.7636 86.1778 31.8553C84.408 34.1614 81.8908 34.5351 80.4383 34.5351Z" fill="#F87C38"/>
<path opacity="0.4" d="M88.6667 28.1062C90.6256 27.7559 92.0497 26.555 91.8475 25.424C91.6453 24.2929 89.8934 23.66 87.9346 24.0103C85.9757 24.3606 84.5516 25.5614 84.7538 26.6925C84.956 27.8235 86.7079 28.4564 88.6667 28.1062Z" fill="#FFCA83"/>
<path opacity="0.4" d="M73.6396 31.1913C72.7935 31.3464 71.9896 31.2829 71.3692 31.0643C71.2916 29.7597 71.5313 28.7371 71.8627 27.9614C72.2082 27.8133 72.589 27.6934 72.9979 27.6229C74.7043 27.3196 76.2273 27.8697 76.4036 28.857C76.5869 29.8443 75.353 30.888 73.6396 31.1913Z" fill="#FFCA83"/>
<path d="M23.6677 98.5898C23.6677 98.5898 21.8627 104.725 27.158 107.306C32.4533 109.887 35.7462 105.254 35.7462 105.254L23.6677 98.5898Z" fill="url(#paint37_linear_5726_76652)"/>
<path d="M81.339 60.8887L89.3067 87.3907L64.1768 108.674L47.4658 87.3907L50.3708 66.876L81.339 60.8887Z" fill="url(#paint38_linear_5726_76652)"/>
<path d="M64.177 108.674L57.2952 109.597L28.4423 106.064L24.7617 100.712L13.9102 84.9079L54.4254 76.8613L62.6892 103.843L64.177 108.674Z" fill="url(#paint39_linear_5726_76652)"/>
<path d="M64.178 108.674L57.2962 109.598L28.4433 106.065L24.7627 100.712L62.6902 103.844L64.178 108.674Z" fill="url(#paint40_linear_5726_76652)"/>
<path d="M107.45 74.0129C107.45 74.0129 106.505 78.3006 104.961 82.6306C104.072 85.1271 102.986 87.6377 101.774 89.3584C98.4454 94.0622 88.715 99.5417 88.715 99.5417C80.4864 105.55 58.4237 113.357 57.2956 109.605C56.7597 107.821 67.0824 104.944 66.61 102.892C66.1305 100.846 62.8236 102.151 63.5216 99.8873C64.2197 97.6235 71.3553 98.4275 71.3553 98.4275L90.6117 81.8478L91.7117 76.8267L92.6354 72.6377L107.45 74.0129Z" fill="url(#paint41_linear_5726_76652)"/>
<path d="M107.45 74.0122C107.45 74.0122 106.505 78.2999 104.961 82.6299C102.648 75.4014 94.4548 76.3323 91.7119 76.833L92.6356 72.644L107.45 74.0122Z" fill="url(#paint42_linear_5726_76652)"/>
<path d="M109.868 59.8304L109.424 68.97L109.354 70.4721L109.17 74.3367C98.2906 76.7344 91.5498 72.7288 91.5498 72.7288C91.5498 72.7288 91.6344 71.2478 92.0081 68.8853C92.5017 65.8035 93.5029 61.2267 95.4772 56.5158C95.8509 55.6202 96.2246 54.8233 96.5913 54.1252C99.6232 48.3424 102.211 48.8783 102.211 48.8783L103.628 49.5342C107.605 51.3678 110.073 55.4439 109.868 59.8304Z" fill="url(#paint43_linear_5726_76652)"/>
<path d="M109.424 68.9703L109.354 70.4724L109.17 74.337C98.2906 76.7347 91.5498 72.7291 91.5498 72.7291C91.5498 72.7291 91.6344 71.2482 92.0081 68.8857C92.5017 65.8039 93.5029 61.227 95.4772 56.5162C95.8509 55.6206 96.2246 54.8237 96.5913 54.1255C96.0977 56.2693 95.5407 60.818 98.3117 64.7461C101.315 68.9774 107.133 69.1043 109.424 68.9703Z" fill="url(#paint44_linear_5726_76652)"/>
<path d="M109.354 70.4652L109.17 74.3297C98.2906 76.7275 91.5498 72.7218 91.5498 72.7218C91.5498 72.7218 91.6344 71.2409 92.0081 68.8784C93.9049 69.6753 101.379 72.4327 109.354 70.4652Z" fill="url(#paint45_linear_5726_76652)"/>
<path d="M90.2864 70.2467L68.6961 92.5316L65.8122 89.3581L54.4248 76.8616L79.5759 58.0605L87.3249 66.8758L90.2864 70.2467Z" fill="url(#paint46_linear_5726_76652)"/>
<path d="M90.2867 70.2464L68.6964 92.5313L65.8125 89.3578L87.3252 66.8755L90.2867 70.2464Z" fill="url(#paint47_linear_5726_76652)"/>
<path d="M54.4256 76.862L50.3713 92.7435L49.1162 97.6659L3.94727 93.5757L5.74528 88.4488L10.9983 73.4629L54.4256 76.862Z" fill="url(#paint48_linear_5726_76652)"/>
<path d="M50.3713 92.7435L49.1162 97.6659L3.94727 93.5757L5.74528 88.4487L50.3713 92.7435Z" fill="url(#paint49_linear_5726_76652)"/>
<path d="M79.5764 58.0604L54.4254 76.8615L45.8866 76.1915L10.998 73.4623L37.0164 53.272L79.5764 58.0604Z" fill="url(#paint50_linear_5726_76652)"/>
<path d="M45.8866 76.1915L10.998 73.4623L37.0164 53.272L45.8866 76.1915Z" fill="url(#paint51_linear_5726_76652)"/>
<path d="M107.209 119.337C101.103 113.067 84.2717 113.328 83.4326 115.634L84.5255 111.325C87.5786 110.775 96.5405 109.64 104.614 113.18C106.003 117.031 107.209 119.337 107.209 119.337Z" fill="url(#paint52_linear_5726_76652)"/>
<path d="M87.762 122.298C85.5832 125.345 74.5272 121.339 74.5272 121.339C42.7623 113.159 36.8464 123.603 36.8464 123.603C36.5221 121.177 38.2707 118.406 40.5905 115.881C51.7453 111.72 64.1128 115.401 71.4811 117.334C78.2431 119.104 82.3327 118.018 84.1166 117.249C85.7524 118.758 89.419 119.971 87.762 122.298Z" fill="url(#paint53_linear_5726_76652)"/>
<path d="M89.8919 8.26492L86.6272 9.37211C86.6272 9.37211 80.4505 0.521639 72.9905 6.19158C72.9553 4.6119 73.6463 3.10273 75.7404 2.06606C83.9761 -2.00304 89.8919 8.26492 89.8919 8.26492Z" fill="url(#paint54_linear_5726_76652)"/>
<path d="M136.224 61.6426C136.224 61.6426 134.743 53.2858 142.753 47.1927C150.763 41.0996 155.896 43.8006 155.896 43.8006C155.896 43.8006 156.496 61.6426 136.224 61.6426Z" fill="url(#paint55_linear_5726_76652)"/>
<path d="M136.224 61.8406C136.175 61.8406 136.119 61.8194 136.076 61.7771C135.999 61.6995 136.006 61.5726 136.083 61.495L150.707 47.567C150.785 47.4894 150.912 47.4965 150.989 47.574C151.067 47.6516 151.06 47.7785 150.982 47.8561L136.358 61.7842C136.323 61.8265 136.274 61.8406 136.224 61.8406Z" fill="url(#paint56_linear_5726_76652)"/>
<path d="M0.203586 133.462C0.203586 133.462 -1.27713 125.106 6.73285 119.013C14.7428 112.919 19.876 115.62 19.876 115.62C19.876 115.62 20.4824 133.462 0.203586 133.462Z" fill="url(#paint57_linear_5726_76652)"/>
<path d="M0.202837 133.666C0.15348 133.666 0.0970718 133.645 0.0547656 133.603C-0.0227958 133.525 -0.0157448 133.398 0.0618166 133.321L14.6857 119.393C14.7632 119.315 14.8901 119.322 14.9677 119.4C15.0453 119.477 15.0382 119.604 14.9607 119.682L0.343858 133.61C0.308603 133.645 0.252195 133.666 0.202837 133.666Z" fill="url(#paint58_linear_5726_76652)"/>
<path d="M139.75 132.651C139.75 132.651 137.712 121.135 148.74 112.743C159.775 104.35 166.847 108.067 166.847 108.067C166.847 108.067 167.686 132.651 139.75 132.651Z" fill="url(#paint59_linear_5726_76652)"/>
<path d="M139.75 132.926C139.679 132.926 139.602 132.898 139.552 132.842C139.447 132.729 139.454 132.56 139.559 132.454L159.704 113.265C159.817 113.159 159.986 113.166 160.092 113.272C160.198 113.385 160.191 113.554 160.085 113.66L139.94 132.849C139.884 132.898 139.813 132.926 139.75 132.926Z" fill="url(#paint60_linear_5726_76652)"/>
<defs>
<linearGradient id="paint0_linear_5726_76652" x1="85.5829" y1="245.629" x2="85.5829" y2="52.1264" gradientUnits="userSpaceOnUse">
<stop stop-color="#386E9F"/>
<stop offset="1" stop-color="white"/>
</linearGradient>
<linearGradient id="paint1_linear_5726_76652" x1="119.593" y1="41.2791" x2="119.593" y2="8.20013" gradientUnits="userSpaceOnUse">
<stop stop-color="#FF2A64"/>
<stop offset="0.4467" stop-color="#FF6C56"/>
<stop offset="0.8169" stop-color="#FF9C4C"/>
<stop offset="1" stop-color="#FFAF48"/>
</linearGradient>
<linearGradient id="paint2_linear_5726_76652" x1="120.916" y1="37.263" x2="120.916" y2="3.83042" gradientUnits="userSpaceOnUse">
<stop stop-color="#FF2A64"/>
<stop offset="0.4467" stop-color="#FF6C56"/>
<stop offset="0.8169" stop-color="#FF9C4C"/>
<stop offset="1" stop-color="#FFAF48"/>
</linearGradient>
<linearGradient id="paint3_linear_5726_76652" x1="131.786" y1="39.4769" x2="139.273" y2="-16.9281" gradientUnits="userSpaceOnUse">
<stop stop-color="#FF2A64"/>
<stop offset="0.4467" stop-color="#FF6C56"/>
<stop offset="0.8169" stop-color="#FF9C4C"/>
<stop offset="1" stop-color="#FFAF48"/>
</linearGradient>
<linearGradient id="paint4_linear_5726_76652" x1="106.2" y1="72.5872" x2="126.571" y2="20.5365" gradientUnits="userSpaceOnUse">
<stop stop-color="#FF2A64"/>
<stop offset="0.4467" stop-color="#FF6C56"/>
<stop offset="0.8169" stop-color="#FF9C4C"/>
<stop offset="1" stop-color="#FFAF48"/>
</linearGradient>
<linearGradient id="paint5_linear_5726_76652" x1="104.492" y1="67.3765" x2="126.779" y2="14.8038" gradientUnits="userSpaceOnUse">
<stop stop-color="#FF2A64"/>
<stop offset="0.4467" stop-color="#FF6C56"/>
<stop offset="0.8169" stop-color="#FF9C4C"/>
<stop offset="1" stop-color="#FFAF48"/>
</linearGradient>
<linearGradient id="paint6_linear_5726_76652" x1="113.89" y1="66.3934" x2="146.447" y2="12.9523" gradientUnits="userSpaceOnUse">
<stop stop-color="#FF2A64"/>
<stop offset="0.4467" stop-color="#FF6C56"/>
<stop offset="0.8169" stop-color="#FF9C4C"/>
<stop offset="1" stop-color="#FFAF48"/>
</linearGradient>
<linearGradient id="paint7_linear_5726_76652" x1="86.7299" y1="64.6508" x2="86.7299" y2="-15.2566" gradientUnits="userSpaceOnUse">
<stop stop-color="#44262A"/>
<stop offset="0.1067" stop-color="#4A282B"/>
<stop offset="0.2486" stop-color="#5B302C"/>
<stop offset="0.4095" stop-color="#763B2E"/>
<stop offset="0.5" stop-color="#894330"/>
<stop offset="1" stop-color="#EE7D61"/>
</linearGradient>
<linearGradient id="paint8_linear_5726_76652" x1="86.7299" y1="81.996" x2="86.7299" y2="10.9637" gradientUnits="userSpaceOnUse">
<stop stop-color="#44262A"/>
<stop offset="0.1067" stop-color="#4A282B"/>
<stop offset="0.2486" stop-color="#5B302C"/>
<stop offset="0.4095" stop-color="#763B2E"/>
<stop offset="0.5" stop-color="#894330"/>
<stop offset="1" stop-color="#EE7D61"/>
</linearGradient>
<linearGradient id="paint9_linear_5726_76652" x1="108.276" y1="137.377" x2="108.276" y2="95.7658" gradientUnits="userSpaceOnUse">
<stop stop-color="#FF2A64"/>
<stop offset="0.4467" stop-color="#FF6C56"/>
<stop offset="0.8169" stop-color="#FF9C4C"/>
<stop offset="1" stop-color="#FFAF48"/>
</linearGradient>
<linearGradient id="paint10_linear_5726_76652" x1="105.396" y1="121.012" x2="105.396" y2="84.9683" gradientUnits="userSpaceOnUse">
<stop stop-color="#FF2A64"/>
<stop offset="0.4467" stop-color="#FF6C56"/>
<stop offset="0.8169" stop-color="#FF9C4C"/>
<stop offset="1" stop-color="#FFAF48"/>
</linearGradient>
<linearGradient id="paint11_linear_5726_76652" x1="72.2899" y1="124.581" x2="72.2899" y2="61.1169" gradientUnits="userSpaceOnUse">
<stop stop-color="#03192E"/>
<stop offset="0.5" stop-color="#223C6A"/>
<stop offset="1" stop-color="#4A74A2"/>
</linearGradient>
<linearGradient id="paint12_linear_5726_76652" x1="89.3653" y1="281.652" x2="63.1173" y2="153.958" gradientUnits="userSpaceOnUse">
<stop stop-color="#FF2A64"/>
<stop offset="0.4467" stop-color="#FF6C56"/>
<stop offset="0.8169" stop-color="#FF9C4C"/>
<stop offset="1" stop-color="#FFAF48"/>
</linearGradient>
<linearGradient id="paint13_linear_5726_76652" x1="49.8397" y1="187.971" x2="112.428" y2="-34.7271" gradientUnits="userSpaceOnUse">
<stop stop-color="#03192E"/>
<stop offset="0.5" stop-color="#223C6A"/>
<stop offset="1" stop-color="#4A74A2"/>
</linearGradient>
<linearGradient id="paint14_linear_5726_76652" x1="69.6792" y1="144.107" x2="79.3427" y2="39.1309" gradientUnits="userSpaceOnUse">
<stop stop-color="#386E9F"/>
<stop offset="1" stop-color="white"/>
</linearGradient>
<linearGradient id="paint15_linear_5726_76652" x1="65.0824" y1="189.449" x2="64.2988" y2="146.361" gradientUnits="userSpaceOnUse">
<stop stop-color="#03192E"/>
<stop offset="0.5" stop-color="#223C6A"/>
<stop offset="1" stop-color="#4A74A2"/>
</linearGradient>
<linearGradient id="paint16_linear_5726_76652" x1="65.4433" y1="243.42" x2="65.0515" y2="186.232" gradientUnits="userSpaceOnUse">
<stop stop-color="#03192E"/>
<stop offset="0.5" stop-color="#223C6A"/>
<stop offset="1" stop-color="#4A74A2"/>
</linearGradient>
<linearGradient id="paint17_linear_5726_76652" x1="127.829" y1="273.744" x2="101.581" y2="146.05" gradientUnits="userSpaceOnUse">
<stop stop-color="#FF2A64"/>
<stop offset="0.4467" stop-color="#FF6C56"/>
<stop offset="0.8169" stop-color="#FF9C4C"/>
<stop offset="1" stop-color="#FFAF48"/>
</linearGradient>
<linearGradient id="paint18_linear_5726_76652" x1="106.801" y1="189.651" x2="79.1163" y2="89.1157" gradientUnits="userSpaceOnUse">
<stop stop-color="#03192E"/>
<stop offset="0.5" stop-color="#223C6A"/>
<stop offset="1" stop-color="#4A74A2"/>
</linearGradient>
<linearGradient id="paint19_linear_5726_76652" x1="100.644" y1="142.005" x2="76.3551" y2="53.2206" gradientUnits="userSpaceOnUse">
<stop stop-color="#386E9F"/>
<stop offset="1" stop-color="white"/>
</linearGradient>
<linearGradient id="paint20_linear_5726_76652" x1="114.266" y1="200.46" x2="100.163" y2="153.196" gradientUnits="userSpaceOnUse">
<stop stop-color="#03192E"/>
<stop offset="0.5" stop-color="#223C6A"/>
<stop offset="1" stop-color="#4A74A2"/>
</linearGradient>
<linearGradient id="paint21_linear_5726_76652" x1="121.404" y1="243.035" x2="121.012" y2="185.846" gradientUnits="userSpaceOnUse">
<stop stop-color="#03192E"/>
<stop offset="0.5" stop-color="#223C6A"/>
<stop offset="1" stop-color="#4A74A2"/>
</linearGradient>
<linearGradient id="paint22_linear_5726_76652" x1="72.0082" y1="196.551" x2="72.0082" y2="16.8394" gradientUnits="userSpaceOnUse">
<stop stop-color="#386E9F"/>
<stop offset="1" stop-color="white"/>
</linearGradient>
<linearGradient id="paint23_linear_5726_76652" x1="68.7347" y1="109.174" x2="68.7347" y2="44.6729" gradientUnits="userSpaceOnUse">
<stop stop-color="#03192E"/>
<stop offset="0.5" stop-color="#223C6A"/>
<stop offset="1" stop-color="#4A74A2"/>
</linearGradient>
<linearGradient id="paint24_linear_5726_76652" x1="95.3207" y1="159.161" x2="95.3207" y2="22.5874" gradientUnits="userSpaceOnUse">
<stop stop-color="#386E9F"/>
<stop offset="1" stop-color="white"/>
</linearGradient>
<linearGradient id="paint25_linear_5726_76652" x1="97.439" y1="123.077" x2="97.439" y2="51.3309" gradientUnits="userSpaceOnUse">
<stop stop-color="#386E9F"/>
<stop offset="1" stop-color="white"/>
</linearGradient>
<linearGradient id="paint26_linear_5726_76652" x1="89.0885" y1="67.2181" x2="89.0885" y2="34.3146" gradientUnits="userSpaceOnUse">
<stop stop-color="#386E9F"/>
<stop offset="1" stop-color="white"/>
</linearGradient>
<linearGradient id="paint27_linear_5726_76652" x1="88.3008" y1="58.514" x2="88.3008" y2="6.27064" gradientUnits="userSpaceOnUse">
<stop stop-color="#03192E"/>
<stop offset="0.5" stop-color="#223C6A"/>
<stop offset="1" stop-color="#4A74A2"/>
</linearGradient>
<linearGradient id="paint28_linear_5726_76652" x1="87.761" y1="90.3697" x2="87.761" y2="20.0234" gradientUnits="userSpaceOnUse">
<stop stop-color="#FF2A64"/>
<stop offset="0.4467" stop-color="#FF6C56"/>
<stop offset="0.8169" stop-color="#FF9C4C"/>
<stop offset="1" stop-color="#FFAF48"/>
</linearGradient>
<linearGradient id="paint29_linear_5726_76652" x1="86.9906" y1="64.1284" x2="86.9906" y2="19.7306" gradientUnits="userSpaceOnUse">
<stop stop-color="#FF2A64"/>
<stop offset="0.4467" stop-color="#FF6C56"/>
<stop offset="0.8169" stop-color="#FF9C4C"/>
<stop offset="1" stop-color="#FFAF48"/>
</linearGradient>
<linearGradient id="paint30_linear_5726_76652" x1="94.0405" y1="24.7293" x2="104.174" y2="8.20472" gradientUnits="userSpaceOnUse">
<stop stop-color="#386E9F"/>
<stop offset="1" stop-color="white"/>
</linearGradient>
<linearGradient id="paint31_linear_5726_76652" x1="97.8632" y1="27.0732" x2="107.997" y2="10.5487" gradientUnits="userSpaceOnUse">
<stop stop-color="#386E9F"/>
<stop offset="1" stop-color="white"/>
</linearGradient>
<linearGradient id="paint32_linear_5726_76652" x1="92.9319" y1="30.8387" x2="104.283" y2="12.3288" gradientUnits="userSpaceOnUse">
<stop stop-color="#386E9F"/>
<stop offset="1" stop-color="white"/>
</linearGradient>
<linearGradient id="paint33_linear_5726_76652" x1="97.4549" y1="18.9881" x2="101.677" y2="12.0686" gradientUnits="userSpaceOnUse">
<stop stop-color="#03192E"/>
<stop offset="0.5" stop-color="#223C6A"/>
<stop offset="1" stop-color="#4A74A2"/>
</linearGradient>
<linearGradient id="paint34_linear_5726_76652" x1="101.445" y1="21.423" x2="105.667" y2="14.5035" gradientUnits="userSpaceOnUse">
<stop stop-color="#03192E"/>
<stop offset="0.5" stop-color="#223C6A"/>
<stop offset="1" stop-color="#4A74A2"/>
</linearGradient>
<linearGradient id="paint35_linear_5726_76652" x1="86.304" y1="24.0055" x2="83.6923" y2="15.04" gradientUnits="userSpaceOnUse">
<stop stop-color="#03192E"/>
<stop offset="0.5" stop-color="#223C6A"/>
<stop offset="1" stop-color="#4A74A2"/>
</linearGradient>
<linearGradient id="paint36_linear_5726_76652" x1="77.9937" y1="26.4269" x2="75.382" y2="17.4614" gradientUnits="userSpaceOnUse">
<stop stop-color="#03192E"/>
<stop offset="0.5" stop-color="#223C6A"/>
<stop offset="1" stop-color="#4A74A2"/>
</linearGradient>
<linearGradient id="paint37_linear_5726_76652" x1="29.5601" y1="145.473" x2="29.5601" y2="97.667" gradientUnits="userSpaceOnUse">
<stop stop-color="#FF2A64"/>
<stop offset="0.4467" stop-color="#FF6C56"/>
<stop offset="0.8169" stop-color="#FF9C4C"/>
<stop offset="1" stop-color="#FFAF48"/>
</linearGradient>
<linearGradient id="paint38_linear_5726_76652" x1="85.7743" y1="134.583" x2="55.4789" y2="48.9334" gradientUnits="userSpaceOnUse">
<stop stop-color="#03192E"/>
<stop offset="0.5" stop-color="#223C6A"/>
<stop offset="1" stop-color="#4A74A2"/>
</linearGradient>
<linearGradient id="paint39_linear_5726_76652" x1="51.0138" y1="146.277" x2="33.3847" y2="73.4218" gradientUnits="userSpaceOnUse">
<stop stop-color="#03192E"/>
<stop offset="0.5" stop-color="#223C6A"/>
<stop offset="1" stop-color="#4A74A2"/>
</linearGradient>
<linearGradient id="paint40_linear_5726_76652" x1="57.3826" y1="151.481" x2="41.4512" y2="93.7716" gradientUnits="userSpaceOnUse">
<stop stop-color="#03192E"/>
<stop offset="0.5" stop-color="#223C6A"/>
<stop offset="1" stop-color="#4A74A2"/>
</linearGradient>
<linearGradient id="paint41_linear_5726_76652" x1="44.105" y1="160.879" x2="94.5082" y2="73.4052" gradientUnits="userSpaceOnUse">
<stop stop-color="#FF2A64"/>
<stop offset="0.4467" stop-color="#FF6C56"/>
<stop offset="0.8169" stop-color="#FF9C4C"/>
<stop offset="1" stop-color="#FFAF48"/>
</linearGradient>
<linearGradient id="paint42_linear_5726_76652" x1="99.5814" y1="94.1654" x2="99.5814" y2="67.8851" gradientUnits="userSpaceOnUse">
<stop stop-color="#FF2A64"/>
<stop offset="0.4467" stop-color="#FF6C56"/>
<stop offset="0.8169" stop-color="#FF9C4C"/>
<stop offset="1" stop-color="#FFAF48"/>
</linearGradient>
<linearGradient id="paint43_linear_5726_76652" x1="100.714" y1="109.174" x2="100.714" y2="44.6731" gradientUnits="userSpaceOnUse">
<stop stop-color="#03192E"/>
<stop offset="0.5" stop-color="#223C6A"/>
<stop offset="1" stop-color="#4A74A2"/>
</linearGradient>
<linearGradient id="paint44_linear_5726_76652" x1="100.487" y1="92.7229" x2="100.487" y2="35.0096" gradientUnits="userSpaceOnUse">
<stop stop-color="#03192E"/>
<stop offset="0.5" stop-color="#223C6A"/>
<stop offset="1" stop-color="#4A74A2"/>
</linearGradient>
<linearGradient id="paint45_linear_5726_76652" x1="100.451" y1="88.0222" x2="100.451" y2="56.9197" gradientUnits="userSpaceOnUse">
<stop stop-color="#386E9F"/>
<stop offset="1" stop-color="white"/>
</linearGradient>
<linearGradient id="paint46_linear_5726_76652" x1="86.8878" y1="136.463" x2="70.9562" y2="67.5248" gradientUnits="userSpaceOnUse">
<stop stop-color="#03192E"/>
<stop offset="0.5" stop-color="#223C6A"/>
<stop offset="1" stop-color="#4A74A2"/>
</linearGradient>
<linearGradient id="paint47_linear_5726_76652" x1="88.2093" y1="131.745" x2="77.6318" y2="77.6908" gradientUnits="userSpaceOnUse">
<stop stop-color="#03192E"/>
<stop offset="0.5" stop-color="#223C6A"/>
<stop offset="1" stop-color="#4A74A2"/>
</linearGradient>
<linearGradient id="paint48_linear_5726_76652" x1="24.2189" y1="134.903" x2="32.0542" y2="56.563" gradientUnits="userSpaceOnUse">
<stop stop-color="#03192E"/>
<stop offset="0.5" stop-color="#223C6A"/>
<stop offset="1" stop-color="#4A74A2"/>
</linearGradient>
<linearGradient id="paint49_linear_5726_76652" x1="36.68" y1="141.829" x2="26.1025" y2="87.7749" gradientUnits="userSpaceOnUse">
<stop stop-color="#03192E"/>
<stop offset="0.5" stop-color="#223C6A"/>
<stop offset="1" stop-color="#4A74A2"/>
</linearGradient>
<linearGradient id="paint50_linear_5726_76652" x1="45.287" y1="100.513" x2="45.287" y2="38.4401" gradientUnits="userSpaceOnUse">
<stop stop-color="#03192E"/>
<stop offset="0.5" stop-color="#223C6A"/>
<stop offset="1" stop-color="#4A74A2"/>
</linearGradient>
<linearGradient id="paint51_linear_5726_76652" x1="28.4413" y1="84.6275" x2="28.4413" y2="28.3748" gradientUnits="userSpaceOnUse">
<stop stop-color="#03192E"/>
<stop offset="0.5" stop-color="#223C6A"/>
<stop offset="1" stop-color="#4A74A2"/>
</linearGradient>
<linearGradient id="paint52_linear_5726_76652" x1="95.3205" y1="139.988" x2="95.3205" y2="89.3171" gradientUnits="userSpaceOnUse">
<stop stop-color="#386E9F"/>
<stop offset="1" stop-color="white"/>
</linearGradient>
<linearGradient id="paint53_linear_5726_76652" x1="62.4942" y1="138.421" x2="62.4942" y2="101.75" gradientUnits="userSpaceOnUse">
<stop stop-color="#386E9F"/>
<stop offset="1" stop-color="white"/>
</linearGradient>
<linearGradient id="paint54_linear_5726_76652" x1="81.4378" y1="15.5266" x2="81.4378" y2="-11.847" gradientUnits="userSpaceOnUse">
<stop stop-color="#44262A"/>
<stop offset="0.1067" stop-color="#4A282B"/>
<stop offset="0.2486" stop-color="#5B302C"/>
<stop offset="0.4095" stop-color="#763B2E"/>
<stop offset="0.5" stop-color="#894330"/>
<stop offset="1" stop-color="#EE7D61"/>
</linearGradient>
<linearGradient id="paint55_linear_5726_76652" x1="125.662" y1="74.5795" x2="153.473" y2="44.4228" gradientUnits="userSpaceOnUse">
<stop stop-color="#1088B1"/>
<stop offset="1" stop-color="#40C37C"/>
</linearGradient>
<linearGradient id="paint56_linear_5726_76652" x1="136.021" y1="54.6774" x2="151.043" y2="54.6774" gradientUnits="userSpaceOnUse">
<stop stop-color="#03192E"/>
<stop offset="0.5" stop-color="#223C6A"/>
<stop offset="1" stop-color="#4A74A2"/>
</linearGradient>
<linearGradient id="paint57_linear_5726_76652" x1="-14.2896" y1="152.079" x2="17.3955" y2="115.873" gradientUnits="userSpaceOnUse">
<stop stop-color="#1088B1"/>
<stop offset="1" stop-color="#40C37C"/>
</linearGradient>
<linearGradient id="paint58_linear_5726_76652" x1="-23.693" y1="162.434" x2="26.9684" y2="104.122" gradientUnits="userSpaceOnUse">
<stop stop-color="#03192E"/>
<stop offset="0.5" stop-color="#223C6A"/>
<stop offset="1" stop-color="#4A74A2"/>
</linearGradient>
<linearGradient id="paint59_linear_5726_76652" x1="133.633" y1="143.303" x2="163.011" y2="108.446" gradientUnits="userSpaceOnUse">
<stop stop-color="#1088B1"/>
<stop offset="1" stop-color="#40C37C"/>
</linearGradient>
<linearGradient id="paint60_linear_5726_76652" x1="139.471" y1="123.056" x2="160.167" y2="123.056" gradientUnits="userSpaceOnUse">
<stop stop-color="#03192E"/>
<stop offset="0.5" stop-color="#223C6A"/>
<stop offset="1" stop-color="#4A74A2"/>
</linearGradient>
</defs>
</svg>
